<svg id="icon" width="100%" height="100%" viewBox="0 0 20 20" fill="none" xmlns="http://www.w3.org/2000/svg">
<path d="M13.1041 10.9479L12.1874 10.0312C12.5485 9.04514 12.361 8.22569 11.6249 7.57292C10.8888 6.92014 10.0902 6.75347 9.22908 7.07292L8.31242 6.15625C8.54853 6.00347 8.81242 5.89236 9.10408 5.82292C9.39575 5.75347 9.69436 5.71875 9.99992 5.71875C10.986 5.71875 11.8228 6.0625 12.5103 6.75C13.1978 7.4375 13.5416 8.2743 13.5416 9.26042C13.5416 9.56597 13.5034 9.86805 13.427 10.1667C13.3506 10.4653 13.243 10.7257 13.1041 10.9479ZM15.7916 13.6354L14.9583 12.8021C15.6388 12.3021 16.2326 11.7431 16.7395 11.125C17.2464 10.5069 17.618 9.88542 17.8541 9.26042C17.1596 7.71875 16.118 6.5 14.7291 5.60417C13.3402 4.70833 11.8333 4.26042 10.2083 4.26042C9.62492 4.26042 9.0277 4.31597 8.41658 4.42708C7.80547 4.53819 7.32631 4.67014 6.97908 4.82292L6.02075 3.84375C6.50686 3.62153 7.12839 3.42708 7.88533 3.26042C8.64228 3.09375 9.38186 3.01042 10.1041 3.01042C12.0902 3.01042 13.9062 3.57639 15.552 4.70833C17.1978 5.84028 18.4027 7.35764 19.1666 9.26042C18.8055 10.1493 18.3402 10.9618 17.7708 11.6979C17.2013 12.434 16.5416 13.0799 15.7916 13.6354ZM16.9999 18.3437L13.4999 14.9062C13.0138 15.1007 12.4652 15.25 11.8541 15.3542C11.243 15.4583 10.6249 15.5104 9.99992 15.5104C7.97214 15.5104 6.13186 14.9444 4.47908 13.8125C2.82631 12.6806 1.61103 11.1632 0.833252 9.26042C1.11103 8.53819 1.49645 7.83333 1.9895 7.14583C2.48256 6.45833 3.08325 5.80208 3.79159 5.17708L1.16659 2.55208L2.04159 1.65625L17.8124 17.4271L16.9999 18.3437ZM4.64575 6.05208C4.13186 6.42708 3.63534 6.92014 3.15617 7.53125C2.677 8.14236 2.33325 8.71875 2.12492 9.26042C2.83325 10.8021 3.89922 12.0208 5.32283 12.9167C6.74645 13.8125 8.36103 14.2604 10.1666 14.2604C10.6249 14.2604 11.0763 14.2326 11.5208 14.1771C11.9652 14.1215 12.2985 14.0382 12.5208 13.9271L11.1874 12.5937C11.0346 12.6632 10.8471 12.7153 10.6249 12.75C10.4027 12.7847 10.1944 12.8021 9.99992 12.8021C9.0277 12.8021 8.19436 12.4618 7.49992 11.7812C6.80547 11.1007 6.45825 10.2604 6.45825 9.26042C6.45825 9.05208 6.47561 8.84375 6.51033 8.63542C6.54506 8.42708 6.59714 8.23958 6.66658 8.07292L4.64575 6.05208Z" fill="var(--primary-icon-color)"/>
</svg>
