<svg id="icon" width="100%" height="100%" viewBox="0 0 20 20" fill="none" xmlns="http://www.w3.org/2000/svg">
<path d="M10.0024 13.5417C10.9868 13.5417 11.8228 13.1971 12.5103 12.508C13.1978 11.8188 13.5416 10.982 13.5416 9.99754C13.5416 9.01307 13.197 8.17708 12.5079 7.48958C11.8188 6.80208 10.9819 6.45833 9.99746 6.45833C9.01299 6.45833 8.177 6.8029 7.4895 7.49204C6.802 8.18117 6.45825 9.01797 6.45825 10.0025C6.45825 10.9869 6.80282 11.8229 7.49196 12.5104C8.18109 13.1979 9.01789 13.5417 10.0024 13.5417ZM9.99502 12.3333C9.34551 12.3333 8.79506 12.106 8.34367 11.6514C7.89228 11.1967 7.66658 10.6446 7.66658 9.9951C7.66658 9.34559 7.89391 8.79514 8.34856 8.34375C8.80323 7.89236 9.35531 7.66667 10.0048 7.66667C10.6543 7.66667 11.2048 7.89399 11.6562 8.34865C12.1076 8.80331 12.3333 9.3554 12.3333 10.0049C12.3333 10.6544 12.1059 11.2049 11.6513 11.6563C11.1966 12.1076 10.6445 12.3333 9.99502 12.3333ZM9.99992 16.25C7.97214 16.25 6.13881 15.6736 4.49992 14.5208C2.86103 13.3681 1.63881 11.8611 0.833252 10C1.63881 8.13889 2.86103 6.63194 4.49992 5.47917C6.13881 4.32639 7.97214 3.75 9.99992 3.75C12.0277 3.75 13.861 4.32639 15.4999 5.47917C17.1388 6.63194 18.361 8.13889 19.1666 10C18.361 11.8611 17.1388 13.3681 15.4999 14.5208C13.861 15.6736 12.0277 16.25 9.99992 16.25ZM9.9964 15C11.6793 15 13.2256 14.5451 14.6353 13.6354C16.0451 12.7257 17.118 11.5139 17.8541 10C17.118 8.48611 16.0462 7.27431 14.6389 6.36458C13.2315 5.45486 11.6863 5 10.0034 5C8.32054 5 6.77422 5.45486 5.3645 6.36458C3.95478 7.27431 2.87492 8.48611 2.12492 10C2.87492 11.5139 3.95361 12.7257 5.36098 13.6354C6.76837 14.5451 8.31351 15 9.9964 15Z" fill="var(--primary-icon-color)"/>
</svg>
